<?xml version="1.0" encoding="UTF-8" standalone="no"?>
<svg viewBox="0 0 744.09448819 1052.3622047" xmlns="http://www.w3.org/2000/svg" xmlns:xlink="http://www.w3.org/1999/xlink">
<defs>
<linearGradient id="linearGradient3963">
<stop offset="0" stop-color="#4d4d4d"/>
<stop offset="1" stop-color="#4d4d4d" stop-opacity="0"/>
</linearGradient>
<linearGradient id="linearGradient3921">
<stop offset="0"/>
<stop offset="1" stop-opacity="0"/>
</linearGradient>
<linearGradient gradientUnits="userSpaceOnUse" id="linearGradient4250" x1="-294" x2="-254">
<stop offset="0" stop-color="#b3b3b3"/>
<stop offset="1" stop-color="#b3b3b3" stop-opacity="0"/>
</linearGradient>
<linearGradient gradientUnits="userSpaceOnUse" id="linearGradient4252" x1="-140" x2="-135" y1="432.36218" y2="402.36218">
<stop offset="0" stop-color="#f9f9f9"/>
<stop offset="1" stop-color="#f9f9f9" stop-opacity="0"/>
</linearGradient>
<linearGradient gradientUnits="userSpaceOnUse" id="linearGradient4242" x2="0" xlink:href="#linearGradient3921" y1="427.36218" y2="437.36218"/>
<linearGradient gradientUnits="userSpaceOnUse" id="linearGradient4244" x1="-222.32617" x2="-221.63135" xlink:href="#linearGradient3921" y1="461.48253" y2="437.26066"/>
<linearGradient gradientUnits="userSpaceOnUse" id="linearGradient4246" x1="-310" x2="-298" xlink:href="#linearGradient3963" y1="424.02884" y2="435.69553"/>
<linearGradient gradientUnits="userSpaceOnUse" id="linearGradient4248" x1="-278" x2="-298" xlink:href="#linearGradient3963" y1="470.69553" y2="435.69553"/>
</defs>
<g transform="matrix(.93667,.35022,-.35022,.93667,459.295,60.67448)">
<path d="m-111,482.36218v-60c-59,0-114.30517.77812-169,0-8.28385-.0831-14.8338,13.43229-15,30s6.71614,29.9169 15,30h169z" fill="url(#linearGradient4242)" stroke="#000" stroke-width=".347"/>
<path d="m-110.63135,482.26065v-60h-170c-8.28385-.0831-14.8338,13.43229-15,30s4.71614,29.9169 13,30h172z" fill="url(#linearGradient4244)" stroke="#000" stroke-width=".347"/>
<path d="m-270,447.36218c0,19.32997-8.95431,35-20,35s-20-15.67003-20-35 8.95431-35 20-35 20,15.67004 20,35z" fill="#999" stroke="#000" stroke-width=".347" transform="matrix(.5,0,0,.85714,35,68.90887)"/>
<path d="m-270,447.36218c0,19.32997-8.95431,35-20,35s-20-15.67003-20-35 8.95431-35 20-35 20,15.67004 20,35z" fill="url(#linearGradient4246)" stroke="#000" stroke-width=".347" transform="matrix(.5,0,0,.85714,35,68.90887)"/>
<path d="m-270,447.36218c0,19.32997-8.95431,35-20,35s-20-15.67003-20-35 8.95431-35 20-35 20,15.67004 20,35z" fill="url(#linearGradient4248)" stroke="#000" stroke-width=".347" transform="matrix(.5,0,0,.85714,35,68.90887)"/>
<g transform="matrix(.8,0,0,.73333,-19.4,120.12991)">
<path d="m-270,447.36218c0,19.32997-8.95431,35-20,35s-20-15.67003-20-35 8.95431-35 20-35 20,15.67004 20,35z" fill="url(#linearGradient4250)" stroke="#000" stroke-width=".347" transform="matrix(.125,0,0,.21429,-73.25,356.49886)"/>
<path d="m-110.65625,445.76843c-.78751,1.2626-1.34375,3.72782-1.34375,6.59375 0,2.87513.5521,5.33502 1.34375,6.59375 .96952-.96317 1.65625-3.54885 1.65625-6.59375s-.69039-5.62508-1.65625-6.59375z" stroke="#000" stroke-width=".05487"/>
</g>
<path d="m-145,422.36218c-4.35407,0-8.06472,8.34805-9.4375,20h24.4375c1.37278-11.65195 5.08343-20 9.4375-20h-24.4375z" fill="url(#linearGradient4252)" stroke="#000" stroke-width=".41058"/>
</g>
<path d="m201.68304,442.35268c-3.76473,3.79757-3.96038,4.35826-4.15625,9.6875 183.84367,68.4109 346.41302,126.24687 523.1875,190.875l.0625-.125c.14875.0728.2905.125.46875.125 1.30088,0 2.86996-2.03773 3.5-4.5625 .52503-2.10397.23913-3.87403-.625-4.40625l.0625-.125c-168.16621-60.44809-369.29695-131.12634-522.5-191.46875z" fill="#f00" opacity=".4183" stroke="#000" stroke-width=".25083"/>
</svg>
